<?xml version="1.0" standalone="no"?>
<!DOCTYPE svg PUBLIC "-//W3C//DTD SVG 20010904//EN"
 "http://www.w3.org/TR/2001/REC-SVG-20010904/DTD/svg10.dtd">
<svg version="1.0" xmlns="http://www.w3.org/2000/svg"
 width="196.000000pt" height="55.000000pt" viewBox="0 0 196.000000 55.000000"
 preserveAspectRatio="xMidYMid meet">
<metadata>
Created by potrace 1.10, written by Peter Selinger 2001-2011
</metadata>
<g transform="translate(0.000000,55.000000) scale(0.100000,-0.100000)"
fill="#000000" stroke="none">
<path d="M1850 333 c0 -111 -3 -132 -20 -161 -39 -64 -9 -62 -882 -62 l-793 1
74 25 c85 29 111 41 111 53 0 10 -227 -72 -241 -86 -5 -5 43 -28 111 -52 67
-24 123 -41 127 -38 6 7 2 8 -110 48 l-68 24 803 5 c898 6 847 1 884 77 14 29
19 67 22 166 3 88 1 127 -7 127 -7 0 -11 -41 -11 -127z"/>
</g>
</svg>
